Coordinates
version=1
nRows=18
nColumns=63
inDegrees=yes

Units are S.I. units (second, meters, Newtons, ...)
If the header above contains a line with 'inDegrees', this indicates whether rotational values are in degrees (yes) or radians (no).

endheader
time	pelvis_tilt	pelvis_list	pelvis_rotation	pelvis_tx	pelvis_ty	pelvis_tz	hip_flexion_r	hip_adduction_r	hip_rotation_r	knee_angle_r	knee_angle_r_beta	ankle_angle_r	subtalar_angle_r	mtp_angle_r	hip_flexion_l	hip_adduction_l	hip_rotation_l	knee_angle_l	knee_angle_l_beta	ankle_angle_l	subtalar_angle_l	mtp_angle_l	L5_S1_Flex_Ext	L5_S1_Lat_Bending	L5_S1_axial_rotation	L4_L5_Flex_Ext	L4_L5_Lat_Bending	L4_L5_axial_rotation	L3_L4_Flex_Ext	L3_L4_Lat_Bending	L3_L4_axial_rotation	L2_L3_Flex_Ext	L2_L3_Lat_Bending	L2_L3_axial_rotation	L1_L2_Flex_Ext	L1_L2_Lat_Bending	L1_L2_axial_rotation	L1_T12_Flex_Ext	L1_T12_Lat_Bending	L1_T12_axial_rotation	Abs_r3	Abs_r2	Abs_r1	Abs_t1	Abs_t2	neck_flexion	neck_bending	neck_rotation	arm_flex_r	arm_add_r	arm_rot_r	elbow_flex_r	pro_sup_r	wrist_flex_r	wrist_dev_r	arm_flex_l	arm_add_l	arm_rot_l	elbow_flex_l	pro_sup_l	wrist_flex_l	wrist_dev_l
2.516667	1.919760	-6.345029	86.507215	0.088193	0.700263	0.784770	-0.780832	1.592056	16.000790	6.325270	0.110397	25.189514	-15.247519	0.000000	0.668757	-0.842273	-13.166778	11.015484	0.192256	31.817703	8.711041	0.000000	-0.171152	0.084900	1.373868	-0.317846	0.112917	1.459735	-0.281185	0.206426	1.459735	-0.195609	0.206426	1.202135	-0.158931	0.173128	1.116268	-0.097796	0.131510	1.030401	-1.222518	0.960404	7.641043	0.000000	0.000000	3.146843	-3.695609	-1.015260	-27.098109	-21.138145	6.084117	86.195781	87.784457	-3.224047	6.102304	-1.759722	-13.683176	10.396569	99.450214	86.601167	-3.302933	8.645555
2.533333	1.995990	-6.716908	88.316997	0.084865	0.699015	0.786056	0.049098	1.629427	13.628526	7.106068	0.124024	26.372920	-14.172123	0.000000	0.633581	-0.609579	-10.467211	9.609157	0.167711	31.483334	7.630915	0.000000	-0.167590	0.067852	1.252686	-0.311232	0.090244	1.330979	-0.275334	0.164976	1.330979	-0.191539	0.164976	1.096100	-0.155624	0.138364	1.017807	-0.095761	0.105103	0.939515	-1.197080	0.767558	6.967064	0.000000	0.000000	4.242056	-3.762987	-1.274545	-26.328671	-20.659770	5.681482	88.874032	87.737477	-2.944035	7.572649	-2.232446	-14.144045	11.559984	96.259771	87.922559	-4.413264	6.839167
2.550000	2.095712	-7.034148	90.213326	0.081517	0.697842	0.787190	0.896261	1.652459	11.214615	8.079090	0.141007	27.638225	-13.172972	0.000000	0.625113	-0.426908	-7.825567	8.378933	0.146240	31.323217	6.762544	0.000000	-0.167283	0.048432	1.096144	-0.310662	0.064415	1.164653	-0.274830	0.117758	1.164653	-0.191188	0.117758	0.959126	-0.155339	0.098763	0.890617	-0.095586	0.075022	0.822108	-1.194888	0.547875	6.096423	0.000000	0.000000	5.106065	-3.723668	-1.374692	-25.289251	-20.266650	5.356277	91.489549	87.681907	-2.461534	9.211981	-2.862432	-14.655315	12.492303	92.794035	88.871585	-5.527589	4.748766
2.566667	2.203381	-7.290047	92.130392	0.078164	0.696756	0.788145	1.797084	1.629034	8.515332	9.295289	0.162233	29.058781	-11.840285	0.000000	0.638655	-0.279331	-5.253976	7.338152	0.128075	31.298797	6.011365	0.000000	-0.169411	0.026455	0.920106	-0.314613	0.035185	0.977612	-0.278325	0.064323	0.977612	-0.193620	0.064323	0.805093	-0.157315	0.053947	0.747586	-0.096801	0.040979	0.690079	-1.210086	0.299264	5.117353	0.000000	0.000000	5.704571	-3.600641	-1.384625	-24.028014	-19.997859	5.124478	94.000980	87.639012	-1.921982	10.884314	-3.602165	-15.201627	13.282302	89.069072	89.420724	-6.814051	2.501703
2.583333	2.285537	-7.478781	94.030684	0.074885	0.695774	0.788885	2.710354	1.515523	5.664342	10.714028	0.186995	30.563386	-10.317816	0.000000	0.672276	-0.138978	-2.897377	6.516604	0.113736	31.383547	5.458063	0.000000	-0.173999	-0.002023	0.723605	-0.323133	-0.002690	0.768830	-0.285863	-0.004918	0.768830	-0.198863	-0.004918	0.633154	-0.161575	-0.004125	0.587929	-0.099423	-0.003133	0.542704	-1.242857	-0.022882	4.024475	0.000000	0.000000	6.004566	-3.307786	-1.233735	-22.552191	-19.841897	4.965653	96.339516	87.516545	-1.121304	12.569379	-4.473028	-15.740003	13.789798	85.101514	89.821852	-8.068872	0.111729
2.600000	2.306003	-7.607627	95.879297	0.071766	0.694901	0.789353	3.613499	1.274415	2.680018	12.293092	0.214555	32.124805	-8.591530	0.000000	0.720573	0.023204	-0.858938	5.914634	0.103230	31.541032	5.160695	0.000000	-0.180302	-0.040700	0.512303	-0.334838	-0.054131	0.544322	-0.296218	-0.098958	0.544322	-0.206067	-0.098958	0.448265	-0.167428	-0.082995	0.416246	-0.103024	-0.063044	0.384227	-1.287877	-0.460405	2.849277	0.000000	0.000000	5.994135	-2.836190	-0.948798	-20.927894	-19.799508	4.927766	98.502775	87.291243	-0.278785	14.171560	-5.476038	-16.287175	14.003085	80.955964	89.932013	-9.207314	-2.265574
2.616667	2.254338	-7.683890	97.647564	0.068850	0.694141	0.789555	4.484907	0.901844	-0.353417	13.989750	0.244167	33.680023	-6.757674	0.000000	0.773512	0.215112	0.817532	5.509115	0.096152	31.743248	5.132005	0.000000	-0.188396	-0.089744	0.293032	-0.349870	-0.119360	0.311347	-0.309515	-0.218204	0.311347	-0.215317	-0.218204	0.256403	-0.174944	-0.183006	0.238089	-0.107649	-0.139014	0.219774	-1.345691	-1.015203	1.629758	0.000000	0.000000	5.687843	-2.199240	-0.613592	-19.229390	-19.856925	4.960181	100.499413	87.052959	0.678175	15.614389	-6.588416	-16.842672	13.932264	76.692847	89.819057	-10.169898	-4.434457
2.633333	2.114858	-7.730197	99.267507	0.066237	0.693465	0.789534	5.321506	0.408048	-3.192651	15.744144	0.274787	35.158622	-5.074637	0.000000	0.845554	0.454079	2.041503	5.303592	0.092565	31.984424	5.369000	0.000000	-0.197261	-0.149840	0.076710	-0.366332	-0.199287	0.081504	-0.324079	-0.364321	0.081504	-0.225449	-0.364321	0.067121	-0.183176	-0.305554	0.062327	-0.112715	-0.232102	0.057532	-1.409012	-1.695021	0.426637	0.000000	0.000000	5.128624	-1.408643	-0.257602	-17.518854	-20.056238	5.117918	102.374173	86.771641	1.516930	16.841067	-7.814206	-17.412146	13.596438	72.439151	89.667235	-11.013079	-6.102601
2.650000	1.889794	-7.747522	100.760545	0.063911	0.692914	0.789306	6.083767	-0.211556	-5.922829	17.486713	0.305201	36.548670	-3.431184	0.000000	0.922581	0.736344	2.834339	5.259264	0.091791	32.230908	5.908845	0.000000	-0.207125	-0.219436	-0.138217	-0.384652	-0.291850	-0.146855	-0.340286	-0.533537	-0.146855	-0.236724	-0.533537	-0.120940	-0.192337	-0.447474	-0.112301	-0.118351	-0.339907	-0.103663	-1.479476	-2.482307	-0.768720	0.000000	0.000000	4.342621	-0.472093	0.104354	-15.858280	-20.361647	5.319820	104.132681	86.547382	2.446948	17.828666	-9.118740	-18.007773	13.008216	68.212588	89.392824	-11.592573	-7.234544
2.666667	1.594315	-7.740010	102.123118	0.061864	0.692502	0.788899	6.747553	-0.927997	-8.477814	19.153516	0.334292	37.817663	-1.886943	0.000000	0.997101	1.049096	3.178875	5.347585	0.093333	32.469719	6.794739	0.000000	-0.217403	-0.295664	-0.348854	-0.403739	-0.393233	-0.370657	-0.357171	-0.718878	-0.370657	-0.248470	-0.718878	-0.305247	-0.201880	-0.602918	-0.283444	-0.124224	-0.457984	-0.261640	-1.552888	-3.344612	-1.940221	0.000000	0.000000	3.368537	0.571647	0.438422	-14.294973	-20.766638	5.527471	105.782208	86.395636	3.516754	18.566298	-10.486359	-18.615840	12.149246	64.064465	89.161346	-11.827234	-7.886004
2.683333	1.256503	-7.711777	103.341988	0.060109	0.692248	0.788342	7.296725	-1.691105	-10.780742	20.682780	0.360983	38.929214	-0.504045	0.000000	1.051576	1.370515	3.154562	5.517161	0.096293	32.676523	7.941483	0.000000	-0.227265	-0.374165	-0.548511	-0.422054	-0.497639	-0.582793	-0.373374	-0.909744	-0.582793	-0.259742	-0.909744	-0.479947	-0.211039	-0.762997	-0.445665	-0.129859	-0.579581	-0.411383	-1.623333	-4.232626	-3.050654	0.000000	0.000000	2.263012	1.680862	0.736255	-12.863523	-21.263513	5.696054	107.330395	86.317546	4.812557	19.096696	-11.876502	-19.245295	11.162098	60.021631	88.995076	-11.764660	-8.227669
2.700000	0.908845	-7.659302	104.415475	0.058600	0.692166	0.787705	7.710540	-2.450781	-12.789873	22.007692	0.384107	39.855367	0.705327	0.000000	1.083534	1.672237	2.834858	5.751746	0.100387	32.839399	9.289966	0.000000	-0.237452	-0.450118	-0.734050	-0.440973	-0.598657	-0.779928	-0.390110	-1.094417	-0.779928	-0.271384	-1.094417	-0.642294	-0.220498	-0.917881	-0.596416	-0.135680	-0.697233	-0.550538	-1.696098	-5.091828	-4.082567	0.000000	0.000000	1.096023	2.807040	0.996493	-11.564747	-21.867510	5.815350	108.780818	86.318570	6.304175	19.453605	-13.257141	-19.861873	10.091916	56.079174	88.847270	-11.423954	-8.581008
2.716667	0.573740	-7.581107	105.359623	0.057310	0.692265	0.786991	7.969258	-3.164654	-14.564913	23.081399	0.402846	40.617286	1.837584	0.000000	1.076394	1.938068	2.224815	6.005239	0.104811	32.960748	10.887049	0.000000	-0.247767	-0.520839	-0.908445	-0.460127	-0.692715	-0.965223	-0.407056	-1.266367	-0.965223	-0.283172	-1.266367	-0.794889	-0.230076	-1.062094	-0.738111	-0.141574	-0.806779	-0.681334	-1.769771	-5.891830	-5.052498	0.000000	0.000000	-0.062118	3.917268	1.268079	-10.373381	-22.566123	5.889355	110.103083	86.390114	8.081769	19.698834	-14.679862	-20.375512	8.619429	52.332367	88.707779	-10.627615	-9.070237
2.733333	0.283329	-7.477169	106.169763	0.056229	0.692543	0.786245	8.082106	-3.775996	-16.057063	23.883378	0.416844	41.206404	2.843669	0.000000	1.008816	2.148015	1.584714	6.213111	0.108439	32.986351	12.412392	0.000000	-0.257918	-0.582296	-1.061409	-0.478979	-0.774454	-1.127747	-0.423733	-1.415794	-1.127747	-0.294774	-1.415794	-0.928733	-0.239502	-1.187418	-0.862395	-0.147374	-0.901976	-0.796057	-1.842280	-6.587049	-5.903238	0.000000	0.000000	-1.122162	4.949843	1.507542	-9.346687	-23.356962	5.909219	111.277944	86.531515	9.907323	19.695954	-16.068006	-20.837275	7.152198	48.803225	88.570999	-9.751770	-9.748155
2.750000	0.064148	-7.349830	106.832413	0.055385	0.692991	0.785456	8.060971	-4.231714	-17.201946	24.405278	0.425952	41.609323	3.644794	0.000000	0.861849	2.274298	1.031331	6.323609	0.110368	32.901499	13.711491	0.000000	-0.267357	-0.631006	-1.182212	-0.496509	-0.839238	-1.256101	-0.439241	-1.534229	-1.256101	-0.305563	-1.534229	-1.034436	-0.248268	-1.286748	-0.960548	-0.152768	-0.977429	-0.886659	-1.909707	-7.138070	-6.575111	0.000000	0.000000	-2.014016	5.849798	1.714858	-8.564032	-24.199094	5.847689	112.306003	86.748152	11.616323	19.399636	-17.340877	-21.291222	6.102457	45.486228	88.442069	-9.244250	-10.673292
2.766667	-0.080473	-7.213498	107.345285	0.054799	0.693571	0.784590	7.934436	-4.517433	-17.971449	24.666797	0.430517	41.836836	4.187087	0.000000	0.647690	2.314952	0.559266	6.326677	0.110421	32.721052	14.785138	0.000000	-0.274030	-0.666861	-1.263873	-0.508902	-0.886925	-1.342865	-0.450204	-1.621406	-1.342865	-0.313189	-1.621406	-1.105889	-0.254464	-1.359863	-1.026897	-0.156581	-1.032968	-0.947905	-1.957371	-7.543666	-7.029284	0.000000	0.000000	-2.680734	6.563710	1.818257	-8.103000	-25.010072	5.669300	113.201210	87.048142	13.082788	18.891903	-18.488355	-21.739386	5.512308	42.438433	88.344213	-9.076433	-11.764422
2.783333	-0.137024	-7.078591	107.651014	0.054493	0.694245	0.783580	7.739185	-4.638549	-18.553419	24.707524	0.431228	41.985093	4.801678	0.000000	0.331913	2.289580	0.574491	6.137994	0.107128	32.352481	15.018221	0.000000	-0.276646	-0.686683	-1.290053	-0.513759	-0.913288	-1.370682	-0.454502	-1.669601	-1.370682	-0.316179	-1.669601	-1.128797	-0.256894	-1.400284	-1.048168	-0.158076	-1.063672	-0.967540	-1.976055	-7.767895	-7.174889	0.000000	0.000000	-3.095685	7.052762	1.806509	-8.056410	-25.712005	5.310946	113.997728	87.433249	14.246111	18.248486	-19.483001	-22.174941	5.513518	39.659966	88.280874	-9.395129	-13.004704
2.800000	-0.106758	-6.943090	107.738998	0.054482	0.694987	0.782379	7.472245	-4.607990	-18.970376	24.539018	0.428287	42.047431	5.510810	0.000000	-0.077109	2.194624	0.951921	5.783200	0.100936	31.853228	14.555132	0.000000	-0.276206	-0.689933	-1.257966	-0.512942	-0.917611	-1.336589	-0.453778	-1.677504	-1.336589	-0.315676	-1.677504	-1.100720	-0.256485	-1.406912	-1.022097	-0.157824	-1.068707	-0.943474	-1.972910	-7.804663	-6.996429	0.000000	0.000000	-3.250170	7.328477	1.670570	-8.462307	-26.212622	4.733253	114.699788	87.879943	15.120465	17.600163	-20.336755	-22.584816	6.092304	37.183261	88.235610	-10.219428	-14.318309
